<svg version="1.1" viewBox="0.0 0.0 638.0 371.0" fill="none" stroke="none" stroke-linecap="square" stroke-miterlimit="10" width="638" height="371" xmlns:xlink="http://www.w3.org/1999/xlink" xmlns="http://www.w3.org/2000/svg"><path fill="#ffffff" d="M0 0L638.0 0L638.0 371.0L0 371.0L0 0Z" fill-rule="nonzero"/><path stroke="#d9ead3" stroke-width="1.0" stroke-linecap="butt" d="M115.5 25.5L115.5 332.5" fill-rule="nonzero"/><path stroke="#d9ead3" stroke-width="1.0" stroke-linecap="butt" d="M231.5 25.5L231.5 332.5" fill-rule="nonzero"/><path stroke="#d9ead3" stroke-width="1.0" stroke-linecap="butt" d="M347.5 25.5L347.5 332.5" fill-rule="nonzero"/><path stroke="#d9ead3" stroke-width="1.0" stroke-linecap="butt" d="M463.5 25.5L463.5 332.5" fill-rule="nonzero"/><path stroke="#d9ead3" stroke-width="1.0" stroke-linecap="butt" d="M579.5 25.5L579.5 332.5" fill-rule="nonzero"/><path stroke="#ecf5e9" stroke-width="1.0" stroke-linecap="butt" d="M192.5 25.5L192.5 332.5" fill-rule="nonzero"/><path stroke="#ecf5e9" stroke-width="1.0" stroke-linecap="butt" d="M153.5 25.5L153.5 332.5" fill-rule="nonzero"/><path stroke="#ecf5e9" stroke-width="1.0" stroke-linecap="butt" d="M308.5 25.5L308.5 332.5" fill-rule="nonzero"/><path stroke="#ecf5e9" stroke-width="1.0" stroke-linecap="butt" d="M269.5 25.5L269.5 332.5" fill-rule="nonzero"/><path stroke="#ecf5e9" stroke-width="1.0" stroke-linecap="butt" d="M424.5 25.5L424.5 332.5" fill-rule="nonzero"/><path stroke="#ecf5e9" stroke-width="1.0" stroke-linecap="butt" d="M386.5 25.5L386.5 332.5" fill-rule="nonzero"/><path stroke="#ecf5e9" stroke-width="1.0" stroke-linecap="butt" d="M540.5 25.5L540.5 332.5" fill-rule="nonzero"/><path stroke="#ecf5e9" stroke-width="1.0" stroke-linecap="butt" d="M502.5 25.5L502.5 332.5" fill-rule="nonzero"/><path stroke="#ecf5e9" stroke-width="1.0" stroke-linecap="butt" d="M618.5 25.5L618.5 332.5" fill-rule="nonzero"/><path stroke="#333333" stroke-width="1.0" stroke-linecap="butt" d="M91.5 332.5L619.5 332.5" fill-rule="nonzero"/><path stroke="#cccccc" stroke-width="1.0" stroke-linecap="butt" d="M91.5 230.5L619.5 230.5" fill-rule="nonzero"/><path stroke="#cccccc" stroke-width="1.0" stroke-linecap="butt" d="M91.5 127.5L619.5 127.5" fill-rule="nonzero"/><path stroke="#cccccc" stroke-width="1.0" stroke-linecap="butt" d="M91.5 25.5L619.5 25.5" fill-rule="nonzero"/><clipPath id="id_0"><path d="M91.55 25.55L619.45 25.55L619.45 332.45L91.55 332.45L91.55 25.55Z" clip-rule="nonzero"/></clipPath><path stroke="#38761d" stroke-width="4.0" stroke-linecap="butt" clip-path="url(#id_0)" d="M98.369156 332.45L105.31147 312.99255L445.04263 316.50143L538.24713 130.77579L546.9932 130.77579L554.95715 128.09552L568.0416 128.09552L576.96594 127.28735L596.00183 122.38718L602.73047 122.50994L603.5003 107.0831L609.8642 103.13432L612.63086 77.0069" fill-rule="nonzero"/><path fill="#38761d" clip-path="url(#id_0)" d="M102.869156 332.45C102.869156 334.93527 100.85444 336.95 98.369156 336.95C95.88387 336.95 93.869156 334.93527 93.869156 332.45C93.869156 329.96472 95.88387 327.95 98.369156 327.95C100.85444 327.95 102.869156 329.96472 102.869156 332.45Z" fill-rule="nonzero"/><path fill="#38761d" clip-path="url(#id_0)" d="M109.81147 312.99255C109.81147 315.4778 107.796745 317.49255 105.31147 317.49255C102.82619 317.49255 100.81147 315.4778 100.81147 312.99255C100.81147 310.50726 102.82619 308.49255 105.31147 308.49255C107.796745 308.49255 109.81147 310.50726 109.81147 312.99255Z" fill-rule="nonzero"/><path fill="#38761d" clip-path="url(#id_0)" d="M449.54263 316.50143C449.54263 318.98672 447.5279 321.00143 445.04263 321.00143C442.55734 321.00143 440.54263 318.98672 440.54263 316.50143C440.54263 314.01614 442.55734 312.00143 445.04263 312.00143C447.5279 312.00143 449.54263 314.01614 449.54263 316.50143Z" fill-rule="nonzero"/><path fill="#38761d" clip-path="url(#id_0)" d="M542.74713 130.77579C542.74713 133.26106 540.7324 135.27579 538.24713 135.27579C535.76184 135.27579 533.74713 133.26106 533.74713 130.77579C533.74713 128.2905 535.76184 126.27578 538.24713 126.27578C540.7324 126.27578 542.74713 128.2905 542.74713 130.77579Z" fill-rule="nonzero"/><path fill="#38761d" clip-path="url(#id_0)" d="M551.4932 130.77579C551.4932 133.26106 549.4785 135.27579 546.9932 135.27579C544.50793 135.27579 542.4932 133.26106 542.4932 130.77579C542.4932 128.2905 544.50793 126.27578 546.9932 126.27578C549.4785 126.27578 551.4932 128.2905 551.4932 130.77579Z" fill-rule="nonzero"/><path fill="#38761d" clip-path="url(#id_0)" d="M559.45715 128.09552C559.45715 130.5808 557.44244 132.59552 554.95715 132.59552C552.47186 132.59552 550.45715 130.5808 550.45715 128.09552C550.45715 125.61024 552.47186 123.59552 554.95715 123.59552C557.44244 123.59552 559.45715 125.61024 559.45715 128.09552Z" fill-rule="nonzero"/><path fill="#38761d" clip-path="url(#id_0)" d="M572.5416 128.09552C572.5416 130.5808 570.5269 132.59552 568.0416 132.59552C565.55634 132.59552 563.5416 130.5808 563.5416 128.09552C563.5416 125.61024 565.55634 123.59552 568.0416 123.59552C570.5269 123.59552 572.5416 125.61024 572.5416 128.09552Z" fill-rule="nonzero"/><path fill="#38761d" clip-path="url(#id_0)" d="M581.46594 127.28735C581.46594 129.77263 579.45123 131.78735 576.96594 131.78735C574.48065 131.78735 572.46594 129.77263 572.46594 127.28735C572.46594 124.80207 574.48065 122.78735 576.96594 122.78735C579.45123 122.78735 581.46594 124.80207 581.46594 127.28735Z" fill-rule="nonzero"/><path fill="#38761d" clip-path="url(#id_0)" d="M600.50183 122.38718C600.50183 124.87246 598.4871 126.88718 596.00183 126.88718C593.51654 126.88718 591.50183 124.87246 591.50183 122.38718C591.50183 119.9019 593.51654 117.88718 596.00183 117.88718C598.4871 117.88718 600.50183 119.9019 600.50183 122.38718Z" fill-rule="nonzero"/><path fill="#38761d" clip-path="url(#id_0)" d="M607.23047 122.50994C607.23047 124.995224 605.2157 127.00994 602.73047 127.00994C600.2452 127.00994 598.23047 124.995224 598.23047 122.50994C598.23047 120.02466 600.2452 118.00994 602.73047 118.00994C605.2157 118.00994 607.23047 120.02466 607.23047 122.50994Z" fill-rule="nonzero"/><path fill="#38761d" clip-path="url(#id_0)" d="M608.0003 107.0831C608.0003 109.56838 605.9856 111.5831 603.5003 111.5831C601.0151 111.5831 599.0003 109.56838 599.0003 107.0831C599.0003 104.59782 601.0151 102.5831 603.5003 102.5831C605.9856 102.5831 608.0003 104.59782 608.0003 107.0831Z" fill-rule="nonzero"/><path fill="#38761d" clip-path="url(#id_0)" d="M614.3642 103.13432C614.3642 105.6196 612.3495 107.63432 609.8642 107.63432C607.3789 107.63432 605.3642 105.6196 605.3642 103.13432C605.3642 100.64904 607.3789 98.63432 609.8642 98.63432C612.3495 98.63432 614.3642 100.64904 614.3642 103.13432Z" fill-rule="nonzero"/><path fill="#38761d" clip-path="url(#id_0)" d="M617.13086 77.0069C617.13086 79.49218 615.11615 81.5069 612.63086 81.5069C610.14557 81.5069 608.13086 79.49218 608.13086 77.0069C608.13086 74.52162 610.14557 72.5069 612.63086 72.5069C615.11615 72.5069 617.13086 74.52162 617.13086 77.0069Z" fill-rule="nonzero"/><path fill="#000000" d="M27.675013 197.35938Q29.690638 199.70312 30.440638 202.1875L29.315638 202.60938Q28.612513 200.125 26.925013 198.15625Q25.143763 199.79688 22.800013 200.35938L22.800013 202.60938L21.909388 202.60938L21.909388 198.10938L20.128138 198.10938L20.128138 197.07812Q20.221888 196.60938 20.503138 197.03125L21.909388 197.03125L21.909388 192.48438L22.800013 192.48438L22.800013 194.6875Q25.003138 195.0625 26.925013 196.65625Q28.378138 195.01562 29.081263 192.29688L30.206263 192.71875Q29.596888 195.10938 27.675013 197.35938ZM26.175013 197.40625Q24.487513 196.0 22.800013 195.67188L22.800013 199.32812Q24.393763 199.04688 26.175013 197.40625ZM25.331263 184.9375L25.940638 184.9375L25.940638 180.34375L26.831263 180.34375L26.831263 184.9375L29.550013 184.9375Q30.300013 184.9375 30.300013 185.6875L30.300013 186.95312L29.409388 187.1875L29.409388 186.0625Q29.409388 185.875 29.221888 185.875L26.831263 185.875L26.831263 190.75L25.940638 190.75L25.940638 185.875L24.721888 185.875L24.815638 185.40625L23.925013 184.09375L23.925013 188.59375L23.034388 188.59375L23.034388 183.15625L22.846888 182.96875L23.643763 182.17188L23.737513 182.45312L25.331263 184.9375ZM21.159388 184.98438L21.159388 180.625L23.503138 180.625L23.503138 181.5625L22.050013 181.5625L22.050013 189.48438L23.596888 189.48438L23.596888 190.42188L21.159388 190.42188L21.159388 186.0625L19.893763 186.0625L19.893763 185.03125Q19.987513 184.5625 20.268763 184.98438L21.159388 184.98438ZM26.971888 170.78125Q25.706263 170.125 23.128138 169.98438L23.128138 171.57812Q25.706263 171.4375 26.971888 170.78125ZM23.128138 169.04688Q26.034388 169.14062 27.815638 170.17188Q28.753138 169.42188 29.456263 168.0625L30.487513 168.67188Q29.503138 170.17188 28.612513 170.78125Q29.831263 171.85938 30.721888 174.10938L29.784388 174.57812Q28.800013 172.14062 27.768763 171.34375Q26.221888 172.14062 24.675013 172.23438Q25.378138 172.51562 25.753138 172.79688L25.143763 173.59375Q23.081263 172.1875 20.034388 171.90625L20.268763 170.92188Q20.456263 170.64062 20.550013 171.0625Q21.393763 171.20312 22.237513 171.4375L22.237513 168.25L23.128138 168.25L23.128138 169.04688ZM20.878138 173.40625Q21.581263 173.6875 22.050013 174.0625L21.628138 174.8125Q21.018763 174.4375 20.221888 174.10938L20.643763 173.26562Q20.831263 173.07812 20.878138 173.40625ZM27.487513 176.40625Q27.675013 175.75 27.909388 175.23438Q27.487513 174.85938 26.643763 174.625L26.643763 175.98438Q27.065638 176.17188 27.487513 176.40625ZM28.659388 177.0625L28.237513 177.8125Q27.534388 177.34375 26.643763 176.875L26.643763 178.65625L25.893763 178.65625L25.893763 176.59375Q25.284388 176.3125 24.862513 176.17188L25.096888 175.28125Q25.284388 175.09375 25.331263 175.42188L25.893763 175.70312L25.893763 173.03125L26.643763 173.03125L26.643763 173.73438Q27.581263 173.96875 28.237513 174.4375Q28.425013 174.01562 28.706263 173.54688L29.456263 173.96875Q29.128138 174.48438 28.940638 174.90625Q30.159388 176.125 30.440638 178.1875L29.596888 178.51562Q29.409388 176.6875 28.565638 175.70312Q28.331263 176.21875 28.143763 176.73438L28.659388 177.0625ZM19.846888 176.125L19.846888 175.375Q19.893763 175.0 20.128138 175.32812L22.143763 175.32812L22.143763 172.9375L22.893763 172.9375L22.893763 174.90625Q23.503138 174.39062 24.065638 173.3125L24.862513 173.82812Q24.393763 174.625 23.550013 175.32812L24.675013 175.32812L24.675013 176.125L23.784388 176.125Q24.721888 176.875 25.471888 178.1875L24.721888 178.79688Q23.971888 177.34375 22.893763 176.40625L22.893763 178.5625L22.143763 178.5625L22.143763 176.125L19.846888 176.125ZM22.003138 177.4375Q21.300013 177.76562 20.784388 178.28125L20.315638 177.53125Q20.878138 176.96875 21.487513 176.6875L22.003138 177.4375Z" fill-rule="nonzero"/><path fill="#000000" d="M79.05 332.21564Q79.05 330.6844 79.3625 329.7625Q79.675 328.825 80.28438 328.325Q80.90938 327.825 81.84688 327.825Q82.53438 327.825 83.05 328.10626Q83.58125 328.3875 83.925 328.91876Q84.26875 329.4344 84.45625 330.1844Q84.64375 330.9344 84.64375 332.21564Q84.64375 333.73126 84.33125 334.65314Q84.03438 335.575 83.40938 336.09064Q82.8 336.59064 81.84688 336.59064Q80.6125 336.59064 79.89375 335.7Q79.05 334.6375 79.05 332.21564ZM80.12813 332.21564Q80.12813 334.325 80.62813 335.02814Q81.12813 335.73126 81.84688 335.73126Q82.58125 335.73126 83.06563 335.02814Q83.56563 334.325 83.56563 332.21564Q83.56563 330.09064 83.06563 329.40314Q82.58125 328.7 81.83125 328.7Q81.1125 328.7 80.675 329.3094Q80.12813 330.09064 80.12813 332.21564Z" fill-rule="nonzero"/><path fill="#000000" d="M55.01875 234.15L53.971874 234.15L53.971874 227.43124Q53.58125 227.79062 52.95625 228.16562Q52.346874 228.525 51.8625 228.69687L51.8625 227.68124Q52.7375 227.25937 53.39375 226.68124Q54.065624 226.0875 54.346874 225.525L55.01875 225.525L55.01875 234.15ZM58.05 229.91562Q58.05 228.38437 58.3625 227.4625Q58.675 226.525 59.284374 226.025Q59.909374 225.525 60.846874 225.525Q61.534374 225.525 62.05 225.80624Q62.58125 226.0875 62.925 226.61874Q63.26875 227.13437 63.45625 227.88437Q63.64375 228.63437 63.64375 229.91562Q63.64375 231.43124 63.33125 232.35312Q63.034374 233.275 62.409374 233.79062Q61.8 234.29062 60.846874 234.29062Q59.6125 234.29062 58.89375 233.4Q58.05 232.3375 58.05 229.91562ZM59.128124 229.91562Q59.128124 232.025 59.628124 232.72812Q60.128124 233.43124 60.846874 233.43124Q61.58125 233.43124 62.065624 232.72812Q62.565624 232.025 62.565624 229.91562Q62.565624 227.79062 62.065624 227.10312Q61.58125 226.4 60.83125 226.4Q60.1125 226.4 59.675 227.00937Q59.128124 227.79062 59.128124 229.91562ZM65.05 229.91562Q65.05 228.38437 65.3625 227.4625Q65.675 226.525 66.28438 226.025Q66.90938 225.525 67.84688 225.525Q68.53438 225.525 69.05 225.80624Q69.58125 226.0875 69.925 226.61874Q70.26875 227.13437 70.45625 227.88437Q70.64375 228.63437 70.64375 229.91562Q70.64375 231.43124 70.33125 232.35312Q70.03438 233.275 69.40938 233.79062Q68.8 234.29062 67.84688 234.29062Q66.6125 234.29062 65.89375 233.4Q65.05 232.3375 65.05 229.91562ZM66.12813 229.91562Q66.12813 232.025 66.62813 232.72812Q67.12813 233.43124 67.84688 233.43124Q68.58125 233.43124 69.06563 232.72812Q69.56563 232.025 69.56563 229.91562Q69.56563 227.79062 69.06563 227.10312Q68.58125 226.4 67.83125 226.4Q67.1125 226.4 66.675 227.00937Q66.12813 227.79062 66.12813 229.91562ZM72.05 229.91562Q72.05 228.38437 72.3625 227.4625Q72.675 226.525 73.28438 226.025Q73.90938 225.525 74.84688 225.525Q75.53438 225.525 76.05 225.80624Q76.58125 226.0875 76.925 226.61874Q77.26875 227.13437 77.45625 227.88437Q77.64375 228.63437 77.64375 229.91562Q77.64375 231.43124 77.33125 232.35312Q77.03438 233.275 76.40938 233.79062Q75.8 234.29062 74.84688 234.29062Q73.6125 234.29062 72.89375 233.4Q72.05 232.3375 72.05 229.91562ZM73.12813 229.91562Q73.12813 232.025 73.62813 232.72812Q74.12813 233.43124 74.84688 233.43124Q75.58125 233.43124 76.06563 232.72812Q76.56563 232.025 76.56563 229.91562Q76.56563 227.79062 76.06563 227.10312Q75.58125 226.4 74.83125 226.4Q74.1125 226.4 73.675 227.00937Q73.12813 227.79062 73.12813 229.91562ZM79.05 229.91562Q79.05 228.38437 79.3625 227.4625Q79.675 226.525 80.28438 226.025Q80.90938 225.525 81.84688 225.525Q82.53438 225.525 83.05 225.80624Q83.58125 226.0875 83.925 226.61874Q84.26875 227.13437 84.45625 227.88437Q84.64375 228.63437 84.64375 229.91562Q84.64375 231.43124 84.33125 232.35312Q84.03438 233.275 83.40938 233.79062Q82.8 234.29062 81.84688 234.29062Q80.6125 234.29062 79.89375 233.4Q79.05 232.3375 79.05 229.91562ZM80.12813 229.91562Q80.12813 232.025 80.62813 232.72812Q81.12813 233.43124 81.84688 233.43124Q82.58125 233.43124 83.06563 232.72812Q83.56563 232.025 83.56563 229.91562Q83.56563 227.79062 83.06563 227.10312Q82.58125 226.4 81.83125 226.4Q81.1125 226.4 80.675 227.00937Q80.12813 227.79062 80.12813 229.91562Z" fill-rule="nonzero"/><path fill="#000000" d="M56.596874 130.83438L56.596874 131.85L50.909374 131.85Q50.909374 131.475 51.034374 131.11563Q51.253124 130.5375 51.721874 129.975Q52.20625 129.4125 53.1125 128.67813Q54.51875 127.52188 55.003124 126.850006Q55.503124 126.17813 55.503124 125.58438Q55.503124 124.95938 55.05 124.537506Q54.596874 124.100006 53.878124 124.100006Q53.1125 124.100006 52.659374 124.55313Q52.20625 125.006256 52.190624 125.818756L51.1125 125.70938Q51.221874 124.49063 51.940624 123.86563Q52.675 123.225006 53.909374 123.225006Q55.14375 123.225006 55.8625 123.912506Q56.58125 124.600006 56.58125 125.61563Q56.58125 126.131256 56.3625 126.631256Q56.159374 127.11563 55.659374 127.67813Q55.175 128.225 54.05 129.17813Q53.096874 129.975 52.815624 130.27188Q52.55 130.55313 52.378124 130.83438L56.596874 130.83438ZM58.05 127.61563Q58.05 126.08438 58.3625 125.162506Q58.675 124.225006 59.284374 123.725006Q59.909374 123.225006 60.846874 123.225006Q61.534374 123.225006 62.05 123.506256Q62.58125 123.787506 62.925 124.318756Q63.26875 124.83438 63.45625 125.58438Q63.64375 126.33438 63.64375 127.61563Q63.64375 129.13126 63.33125 130.05313Q63.034374 130.975 62.409374 131.49063Q61.8 131.99063 60.846874 131.99063Q59.6125 131.99063 58.89375 131.1Q58.05 130.0375 58.05 127.61563ZM59.128124 127.61563Q59.128124 129.725 59.628124 130.42813Q60.128124 131.13126 60.846874 131.13126Q61.58125 131.13126 62.065624 130.42813Q62.565624 129.725 62.565624 127.61563Q62.565624 125.49063 62.065624 124.80313Q61.58125 124.100006 60.83125 124.100006Q60.1125 124.100006 59.675 124.70938Q59.128124 125.49063 59.128124 127.61563ZM65.05 127.61563Q65.05 126.08438 65.3625 125.162506Q65.675 124.225006 66.28438 123.725006Q66.90938 123.225006 67.84688 123.225006Q68.53438 123.225006 69.05 123.506256Q69.58125 123.787506 69.925 124.318756Q70.26875 124.83438 70.45625 125.58438Q70.64375 126.33438 70.64375 127.61563Q70.64375 129.13126 70.33125 130.05313Q70.03438 130.975 69.40938 131.49063Q68.8 131.99063 67.84688 131.99063Q66.6125 131.99063 65.89375 131.1Q65.05 130.0375 65.05 127.61563ZM66.12813 127.61563Q66.12813 129.725 66.62813 130.42813Q67.12813 131.13126 67.84688 131.13126Q68.58125 131.13126 69.06563 130.42813Q69.56563 129.725 69.56563 127.61563Q69.56563 125.49063 69.06563 124.80313Q68.58125 124.100006 67.83125 124.100006Q67.1125 124.100006 66.675 124.70938Q66.12813 125.49063 66.12813 127.61563ZM72.05 127.61563Q72.05 126.08438 72.3625 125.162506Q72.675 124.225006 73.28438 123.725006Q73.90938 123.225006 74.84688 123.225006Q75.53438 123.225006 76.05 123.506256Q76.58125 123.787506 76.925 124.318756Q77.26875 124.83438 77.45625 125.58438Q77.64375 126.33438 77.64375 127.61563Q77.64375 129.13126 77.33125 130.05313Q77.03438 130.975 76.40938 131.49063Q75.8 131.99063 74.84688 131.99063Q73.6125 131.99063 72.89375 131.1Q72.05 130.0375 72.05 127.61563ZM73.12813 127.61563Q73.12813 129.725 73.62813 130.42813Q74.12813 131.13126 74.84688 131.13126Q75.58125 131.13126 76.06563 130.42813Q76.56563 129.725 76.56563 127.61563Q76.56563 125.49063 76.06563 124.80313Q75.58125 124.100006 74.83125 124.100006Q74.1125 124.100006 73.675 124.70938Q73.12813 125.49063 73.12813 127.61563ZM79.05 127.61563Q79.05 126.08438 79.3625 125.162506Q79.675 124.225006 80.28438 123.725006Q80.90938 123.225006 81.84688 123.225006Q82.53438 123.225006 83.05 123.506256Q83.58125 123.787506 83.925 124.318756Q84.26875 124.83438 84.45625 125.58438Q84.64375 126.33438 84.64375 127.61563Q84.64375 129.13126 84.33125 130.05313Q84.03438 130.975 83.40938 131.49063Q82.8 131.99063 81.84688 131.99063Q80.6125 131.99063 79.89375 131.1Q79.05 130.0375 79.05 127.61563ZM80.12813 127.61563Q80.12813 129.725 80.62813 130.42813Q81.12813 131.13126 81.84688 131.13126Q82.58125 131.13126 83.06563 130.42813Q83.56563 129.725 83.56563 127.61563Q83.56563 125.49063 83.06563 124.80313Q82.58125 124.100006 81.83125 124.100006Q81.1125 124.100006 80.675 124.70938Q80.12813 125.49063 80.12813 127.61563Z" fill-rule="nonzero"/><path fill="#000000" d="M51.05 27.284374L52.1125 27.14375Q52.284374 28.034374 52.721874 28.440624Q53.159374 28.83125 53.784374 28.83125Q54.534374 28.83125 55.05 28.315624Q55.565624 27.8 55.565624 27.034374Q55.565624 26.315624 55.08125 25.846874Q54.6125 25.3625 53.878124 25.3625Q53.58125 25.3625 53.128124 25.4875L53.253124 24.55Q53.3625 24.565624 53.425 24.565624Q54.096874 24.565624 54.628124 24.221874Q55.175 23.8625 55.175 23.128124Q55.175 22.55 54.784374 22.175Q54.39375 21.784374 53.76875 21.784374Q53.159374 21.784374 52.7375 22.175Q52.33125 22.565624 52.221874 23.33125L51.159374 23.14375Q51.346874 22.096874 52.034374 21.51875Q52.721874 20.925 53.7375 20.925Q54.440624 20.925 55.034374 21.2375Q55.628124 21.534374 55.940624 22.05Q56.253124 22.565624 56.253124 23.159374Q56.253124 23.70625 55.95625 24.175Q55.659374 24.628124 55.08125 24.89375Q55.83125 25.065624 56.253124 25.628124Q56.675 26.175 56.675 27.01875Q56.675 28.14375 55.846874 28.925Q55.034374 29.70625 53.784374 29.70625Q52.659374 29.70625 51.909374 29.034374Q51.159374 28.346874 51.05 27.284374ZM58.05 25.315624Q58.05 23.784374 58.3625 22.8625Q58.675 21.925 59.284374 21.425Q59.909374 20.925 60.846874 20.925Q61.534374 20.925 62.05 21.20625Q62.58125 21.4875 62.925 22.01875Q63.26875 22.534374 63.45625 23.284374Q63.64375 24.034374 63.64375 25.315624Q63.64375 26.83125 63.33125 27.753124Q63.034374 28.675 62.409374 29.190624Q61.8 29.690624 60.846874 29.690624Q59.6125 29.690624 58.89375 28.8Q58.05 27.7375 58.05 25.315624ZM59.128124 25.315624Q59.128124 27.425 59.628124 28.128124Q60.128124 28.83125 60.846874 28.83125Q61.58125 28.83125 62.065624 28.128124Q62.565624 27.425 62.565624 25.315624Q62.565624 23.190624 62.065624 22.503124Q61.58125 21.8 60.83125 21.8Q60.1125 21.8 59.675 22.409374Q59.128124 23.190624 59.128124 25.315624ZM65.05 25.315624Q65.05 23.784374 65.3625 22.8625Q65.675 21.925 66.28438 21.425Q66.90938 20.925 67.84688 20.925Q68.53438 20.925 69.05 21.20625Q69.58125 21.4875 69.925 22.01875Q70.26875 22.534374 70.45625 23.284374Q70.64375 24.034374 70.64375 25.315624Q70.64375 26.83125 70.33125 27.753124Q70.03438 28.675 69.40938 29.190624Q68.8 29.690624 67.84688 29.690624Q66.6125 29.690624 65.89375 28.8Q65.05 27.7375 65.05 25.315624ZM66.12813 25.315624Q66.12813 27.425 66.62813 28.128124Q67.12813 28.83125 67.84688 28.83125Q68.58125 28.83125 69.06563 28.128124Q69.56563 27.425 69.56563 25.315624Q69.56563 23.190624 69.06563 22.503124Q68.58125 21.8 67.83125 21.8Q67.1125 21.8 66.675 22.409374Q66.12813 23.190624 66.12813 25.315624ZM72.05 25.315624Q72.05 23.784374 72.3625 22.8625Q72.675 21.925 73.28438 21.425Q73.90938 20.925 74.84688 20.925Q75.53438 20.925 76.05 21.20625Q76.58125 21.4875 76.925 22.01875Q77.26875 22.534374 77.45625 23.284374Q77.64375 24.034374 77.64375 25.315624Q77.64375 26.83125 77.33125 27.753124Q77.03438 28.675 76.40938 29.190624Q75.8 29.690624 74.84688 29.690624Q73.6125 29.690624 72.89375 28.8Q72.05 27.7375 72.05 25.315624ZM73.12813 25.315624Q73.12813 27.425 73.62813 28.128124Q74.12813 28.83125 74.84688 28.83125Q75.58125 28.83125 76.06563 28.128124Q76.56563 27.425 76.56563 25.315624Q76.56563 23.190624 76.06563 22.503124Q75.58125 21.8 74.83125 21.8Q74.1125 21.8 73.675 22.409374Q73.12813 23.190624 73.12813 25.315624ZM79.05 25.315624Q79.05 23.784374 79.3625 22.8625Q79.675 21.925 80.28438 21.425Q80.90938 20.925 81.84688 20.925Q82.53438 20.925 83.05 21.20625Q83.58125 21.4875 83.925 22.01875Q84.26875 22.534374 84.45625 23.284374Q84.64375 24.034374 84.64375 25.315624Q84.64375 26.83125 84.33125 27.753124Q84.03438 28.675 83.40938 29.190624Q82.8 29.690624 81.84688 29.690624Q80.6125 29.690624 79.89375 28.8Q79.05 27.7375 79.05 25.315624ZM80.12813 25.315624Q80.12813 27.425 80.62813 28.128124Q81.12813 28.83125 81.84688 28.83125Q82.58125 28.83125 83.06563 28.128124Q83.56563 27.425 83.56563 25.315624Q83.56563 23.190624 83.06563 22.503124Q82.58125 21.8 81.83125 21.8Q81.1125 21.8 80.675 22.409374Q80.12813 23.190624 80.12813 25.315624Z" fill-rule="nonzero"/><path fill="#000000" d="M67.094086 348.4344L67.094086 349.45L61.40659 349.45Q61.40659 349.075 61.53159 348.71564Q61.75034 348.1375 62.21909 347.575Q62.703465 347.0125 63.609715 346.27814Q65.01596 345.1219 65.500336 344.45Q66.000336 343.77814 66.000336 343.1844Q66.000336 342.5594 65.54721 342.1375Q65.094086 341.7 64.375336 341.7Q63.609715 341.7 63.15659 342.15314Q62.703465 342.60626 62.68784 343.41876L61.609715 343.3094Q61.71909 342.09064 62.43784 341.46564Q63.172215 340.825 64.406586 340.825Q65.64096 340.825 66.35971 341.5125Q67.07846 342.2 67.07846 343.21564Q67.07846 343.73126 66.85971 344.23126Q66.656586 344.71564 66.156586 345.27814Q65.67221 345.825 64.54721 346.77814Q63.59409 347.575 63.31284 347.8719Q63.047215 348.15314 62.87534 348.4344L67.094086 348.4344ZM68.54721 345.21564Q68.54721 343.6844 68.85971 342.7625Q69.17221 341.825 69.781586 341.325Q70.406586 340.825 71.344086 340.825Q72.031586 340.825 72.54721 341.10626Q73.07846 341.3875 73.42221 341.91876Q73.76596 342.4344 73.95346 343.1844Q74.14096 343.9344 74.14096 345.21564Q74.14096 346.73126 73.82846 347.65314Q73.531586 348.575 72.906586 349.09064Q72.29721 349.59064 71.344086 349.59064Q70.10971 349.59064 69.39096 348.7Q68.54721 347.6375 68.54721 345.21564ZM69.625336 345.21564Q69.625336 347.325 70.125336 348.02814Q70.625336 348.73126 71.344086 348.73126Q72.07846 348.73126 72.562836 348.02814Q73.062836 347.325 73.062836 345.21564Q73.062836 343.09064 72.562836 342.40314Q72.07846 341.7 71.32846 341.7Q70.60971 341.7 70.17221 342.3094Q69.625336 343.09064 69.625336 345.21564ZM81.094086 348.4344L81.094086 349.45L75.406586 349.45Q75.406586 349.075 75.531586 348.71564Q75.750336 348.1375 76.219086 347.575Q76.70346 347.0125 77.60971 346.27814Q79.01596 345.1219 79.500336 344.45Q80.000336 343.77814 80.000336 343.1844Q80.000336 342.5594 79.54721 342.1375Q79.094086 341.7 78.375336 341.7Q77.60971 341.7 77.156586 342.15314Q76.70346 342.60626 76.687836 343.41876L75.60971 343.3094Q75.719086 342.09064 76.437836 341.46564Q77.17221 340.825 78.406586 340.825Q79.64096 340.825 80.35971 341.5125Q81.07846 342.2 81.07846 343.21564Q81.07846 343.73126 80.85971 344.23126Q80.656586 344.71564 80.156586 345.27814Q79.67221 345.825 78.54721 346.77814Q77.594086 347.575 77.312836 347.8719Q77.04721 348.15314 76.875336 348.4344L81.094086 348.4344ZM82.54721 347.2L83.656586 347.10626Q83.781586 347.91876 84.219086 348.325Q84.67221 348.73126 85.312836 348.73126Q86.062836 348.73126 86.594086 348.15314Q87.125336 347.575 87.125336 346.6375Q87.125336 345.73126 86.60971 345.21564Q86.10971 344.6844 85.281586 344.6844Q84.781586 344.6844 84.35971 344.91876Q83.95346 345.15314 83.719086 345.5125L82.73471 345.3875L83.562836 340.98126L87.844086 340.98126L87.844086 341.98126L84.406586 341.98126L83.95346 344.29376Q84.719086 343.7469 85.562836 343.7469Q86.687836 343.7469 87.45346 344.52814Q88.23471 345.3094 88.23471 346.54376Q88.23471 347.7 87.562836 348.5594Q86.73471 349.59064 85.312836 349.59064Q84.14096 349.59064 83.39096 348.9344Q82.656586 348.27814 82.54721 347.2ZM89.42221 346.8719L89.42221 345.8094L92.67221 345.8094L92.67221 346.8719L89.42221 346.8719ZM97.51596 349.45L96.469086 349.45L96.469086 342.73126Q96.07846 343.09064 95.45346 343.46564Q94.844086 343.825 94.35971 343.9969L94.35971 342.98126Q95.23471 342.5594 95.89096 341.98126Q96.562836 341.3875 96.844086 340.825L97.51596 340.825L97.51596 349.45ZM100.54721 345.21564Q100.54721 343.6844 100.85971 342.7625Q101.17221 341.825 101.781586 341.325Q102.406586 340.825 103.344086 340.825Q104.031586 340.825 104.54721 341.10626Q105.07846 341.3875 105.42221 341.91876Q105.76596 342.4344 105.95346 343.1844Q106.14096 343.9344 106.14096 345.21564Q106.14096 346.73126 105.82846 347.65314Q105.531586 348.575 104.906586 349.09064Q104.29721 349.59064 103.344086 349.59064Q102.10971 349.59064 101.39096 348.7Q100.54721 347.6375 100.54721 345.21564ZM101.625336 345.21564Q101.625336 347.325 102.125336 348.02814Q102.625336 348.73126 103.344086 348.73126Q104.07846 348.73126 104.562836 348.02814Q105.062836 347.325 105.062836 345.21564Q105.062836 343.09064 104.562836 342.40314Q104.07846 341.7 103.32846 341.7Q102.60971 341.7 102.17221 342.3094Q101.625336 343.09064 101.625336 345.21564ZM107.42221 346.8719L107.42221 345.8094L110.67221 345.8094L110.67221 346.8719L107.42221 346.8719ZM115.51596 349.45L114.469086 349.45L114.469086 342.73126Q114.07846 343.09064 113.45346 343.46564Q112.844086 343.825 112.35971 343.9969L112.35971 342.98126Q113.23471 342.5594 113.89096 341.98126Q114.562836 341.3875 114.844086 340.825L115.51596 340.825L115.51596 349.45ZM124.094086 348.4344L124.094086 349.45L118.406586 349.45Q118.406586 349.075 118.531586 348.71564Q118.750336 348.1375 119.219086 347.575Q119.70346 347.0125 120.60971 346.27814Q122.01596 345.1219 122.500336 344.45Q123.000336 343.77814 123.000336 343.1844Q123.000336 342.5594 122.54721 342.1375Q122.094086 341.7 121.375336 341.7Q120.60971 341.7 120.156586 342.15314Q119.70346 342.60626 119.687836 343.41876L118.60971 343.3094Q118.719086 342.09064 119.437836 341.46564Q120.17221 340.825 121.406586 340.825Q122.64096 340.825 123.35971 341.5125Q124.07846 342.2 124.07846 343.21564Q124.07846 343.73126 123.85971 344.23126Q123.656586 344.71564 123.156586 345.27814Q122.67221 345.825 121.54721 346.77814Q120.594086 347.575 120.312836 347.8719Q120.04721 348.15314 119.875336 348.4344L124.094086 348.4344ZM128.54721 345.21564Q128.54721 343.6844 128.85971 342.7625Q129.17221 341.825 129.78159 341.325Q130.40659 340.825 131.34409 340.825Q132.03159 340.825 132.54721 341.10626Q133.07846 341.3875 133.42221 341.91876Q133.76596 342.4344 133.95346 343.1844Q134.14096 343.9344 134.14096 345.21564Q134.14096 346.73126 133.82846 347.65314Q133.53159 348.575 132.90659 349.09064Q132.29721 349.59064 131.34409 349.59064Q130.10971 349.59064 129.39096 348.7Q128.54721 347.6375 128.54721 345.21564ZM129.62534 345.21564Q129.62534 347.325 130.12534 348.02814Q130.62534 348.73126 131.34409 348.73126Q132.07846 348.73126 132.56284 348.02814Q133.06284 347.325 133.06284 345.21564Q133.06284 343.09064 132.56284 342.40314Q132.07846 341.7 131.32846 341.7Q130.60971 341.7 130.17221 342.3094Q129.62534 343.09064 129.62534 345.21564ZM136.12534 344.4344L136.12534 343.23126L137.32846 343.23126L137.32846 344.4344L136.12534 344.4344ZM136.12534 349.45L136.12534 348.2469L137.32846 348.2469L137.32846 349.45L136.12534 349.45ZM138.54721 345.21564Q138.54721 343.6844 138.85971 342.7625Q139.17221 341.825 139.78159 341.325Q140.40659 340.825 141.34409 340.825Q142.03159 340.825 142.54721 341.10626Q143.07846 341.3875 143.42221 341.91876Q143.76596 342.4344 143.95346 343.1844Q144.14096 343.9344 144.14096 345.21564Q144.14096 346.73126 143.82846 347.65314Q143.53159 348.575 142.90659 349.09064Q142.29721 349.59064 141.34409 349.59064Q140.10971 349.59064 139.39096 348.7Q138.54721 347.6375 138.54721 345.21564ZM139.62534 345.21564Q139.62534 347.325 140.12534 348.02814Q140.62534 348.73126 141.34409 348.73126Q142.07846 348.73126 142.56284 348.02814Q143.06284 347.325 143.06284 345.21564Q143.06284 343.09064 142.56284 342.40314Q142.07846 341.7 141.32846 341.7Q140.60971 341.7 140.17221 342.3094Q139.62534 343.09064 139.62534 345.21564ZM145.54721 345.21564Q145.54721 343.6844 145.85971 342.7625Q146.17221 341.825 146.78159 341.325Q147.40659 340.825 148.34409 340.825Q149.03159 340.825 149.54721 341.10626Q150.07846 341.3875 150.42221 341.91876Q150.76596 342.4344 150.95346 343.1844Q151.14096 343.9344 151.14096 345.21564Q151.14096 346.73126 150.82846 347.65314Q150.53159 348.575 149.90659 349.09064Q149.29721 349.59064 148.34409 349.59064Q147.10971 349.59064 146.39096 348.7Q145.54721 347.6375 145.54721 345.21564ZM146.62534 345.21564Q146.62534 347.325 147.12534 348.02814Q147.62534 348.73126 148.34409 348.73126Q149.07846 348.73126 149.56284 348.02814Q150.06284 347.325 150.06284 345.21564Q150.06284 343.09064 149.56284 342.40314Q149.07846 341.7 148.32846 341.7Q147.60971 341.7 147.17221 342.3094Q146.62534 343.09064 146.62534 345.21564ZM153.12534 344.4344L153.12534 343.23126L154.32846 343.23126L154.32846 344.4344L153.12534 344.4344ZM153.12534 349.45L153.12534 348.2469L154.32846 348.2469L154.32846 349.45L153.12534 349.45ZM155.54721 345.21564Q155.54721 343.6844 155.85971 342.7625Q156.17221 341.825 156.78159 341.325Q157.40659 340.825 158.34409 340.825Q159.03159 340.825 159.54721 341.10626Q160.07846 341.3875 160.42221 341.91876Q160.76596 342.4344 160.95346 343.1844Q161.14096 343.9344 161.14096 345.21564Q161.14096 346.73126 160.82846 347.65314Q160.53159 348.575 159.90659 349.09064Q159.29721 349.59064 158.34409 349.59064Q157.10971 349.59064 156.39096 348.7Q155.54721 347.6375 155.54721 345.21564ZM156.62534 345.21564Q156.62534 347.325 157.12534 348.02814Q157.62534 348.73126 158.34409 348.73126Q159.07846 348.73126 159.56284 348.02814Q160.06284 347.325 160.06284 345.21564Q160.06284 343.09064 159.56284 342.40314Q159.07846 341.7 158.32846 341.7Q157.60971 341.7 157.17221 342.3094Q156.62534 343.09064 156.62534 345.21564ZM162.54721 345.21564Q162.54721 343.6844 162.85971 342.7625Q163.17221 341.825 163.78159 341.325Q164.40659 340.825 165.34409 340.825Q166.03159 340.825 166.54721 341.10626Q167.07846 341.3875 167.42221 341.91876Q167.76596 342.4344 167.95346 343.1844Q168.14096 343.9344 168.14096 345.21564Q168.14096 346.73126 167.82846 347.65314Q167.53159 348.575 166.90659 349.09064Q166.29721 349.59064 165.34409 349.59064Q164.10971 349.59064 163.39096 348.7Q162.54721 347.6375 162.54721 345.21564ZM163.62534 345.21564Q163.62534 347.325 164.12534 348.02814Q164.62534 348.73126 165.34409 348.73126Q166.07846 348.73126 166.56284 348.02814Q167.06284 347.325 167.06284 345.21564Q167.06284 343.09064 166.56284 342.40314Q166.07846 341.7 165.32846 341.7Q164.60971 341.7 164.17221 342.3094Q163.62534 343.09064 163.62534 345.21564Z" fill-rule="nonzero"/><path fill="#000000" d="M183.22491 348.4344L183.22491 349.45L177.53741 349.45Q177.53741 349.075 177.66241 348.71564Q177.88116 348.1375 178.34991 347.575Q178.83429 347.0125 179.74054 346.27814Q181.14679 345.1219 181.63116 344.45Q182.13116 343.77814 182.13116 343.1844Q182.13116 342.5594 181.67804 342.1375Q181.22491 341.7 180.50616 341.7Q179.74054 341.7 179.28741 342.15314Q178.83429 342.60626 178.81866 343.41876L177.74054 343.3094Q177.84991 342.09064 178.56866 341.46564Q179.30304 340.825 180.53741 340.825Q181.77179 340.825 182.49054 341.5125Q183.20929 342.2 183.20929 343.21564Q183.20929 343.73126 182.99054 344.23126Q182.78741 344.71564 182.28741 345.27814Q181.80304 345.825 180.67804 346.77814Q179.72491 347.575 179.44366 347.8719Q179.17804 348.15314 179.00616 348.4344L183.22491 348.4344ZM184.67804 345.21564Q184.67804 343.6844 184.99054 342.7625Q185.30304 341.825 185.91241 341.325Q186.53741 340.825 187.47491 340.825Q188.16241 340.825 188.67804 341.10626Q189.20929 341.3875 189.55304 341.91876Q189.89679 342.4344 190.08429 343.1844Q190.27179 343.9344 190.27179 345.21564Q190.27179 346.73126 189.95929 347.65314Q189.66241 348.575 189.03741 349.09064Q188.42804 349.59064 187.47491 349.59064Q186.24054 349.59064 185.52179 348.7Q184.67804 347.6375 184.67804 345.21564ZM185.75616 345.21564Q185.75616 347.325 186.25616 348.02814Q186.75616 348.73126 187.47491 348.73126Q188.20929 348.73126 188.69366 348.02814Q189.19366 347.325 189.19366 345.21564Q189.19366 343.09064 188.69366 342.40314Q188.20929 341.7 187.45929 341.7Q186.74054 341.7 186.30304 342.3094Q185.75616 343.09064 185.75616 345.21564ZM197.22491 348.4344L197.22491 349.45L191.53741 349.45Q191.53741 349.075 191.66241 348.71564Q191.88116 348.1375 192.34991 347.575Q192.83429 347.0125 193.74054 346.27814Q195.14679 345.1219 195.63116 344.45Q196.13116 343.77814 196.13116 343.1844Q196.13116 342.5594 195.67804 342.1375Q195.22491 341.7 194.50616 341.7Q193.74054 341.7 193.28741 342.15314Q192.83429 342.60626 192.81866 343.41876L191.74054 343.3094Q191.84991 342.09064 192.56866 341.46564Q193.30304 340.825 194.53741 340.825Q195.77179 340.825 196.49054 341.5125Q197.20929 342.2 197.20929 343.21564Q197.20929 343.73126 196.99054 344.23126Q196.78741 344.71564 196.28741 345.27814Q195.80304 345.825 194.67804 346.77814Q193.72491 347.575 193.44366 347.8719Q193.17804 348.15314 193.00616 348.4344L197.22491 348.4344ZM198.67804 347.2L199.78741 347.10626Q199.91241 347.91876 200.34991 348.325Q200.80304 348.73126 201.44366 348.73126Q202.19366 348.73126 202.72491 348.15314Q203.25616 347.575 203.25616 346.6375Q203.25616 345.73126 202.74054 345.21564Q202.24054 344.6844 201.41241 344.6844Q200.91241 344.6844 200.49054 344.91876Q200.08429 345.15314 199.84991 345.5125L198.86554 345.3875L199.69366 340.98126L203.97491 340.98126L203.97491 341.98126L200.53741 341.98126L200.08429 344.29376Q200.84991 343.7469 201.69366 343.7469Q202.81866 343.7469 203.58429 344.52814Q204.36554 345.3094 204.36554 346.54376Q204.36554 347.7 203.69366 348.5594Q202.86554 349.59064 201.44366 349.59064Q200.27179 349.59064 199.52179 348.9344Q198.78741 348.27814 198.67804 347.2ZM205.55304 346.8719L205.55304 345.8094L208.80304 345.8094L208.80304 346.8719L205.55304 346.8719ZM213.64679 349.45L212.59991 349.45L212.59991 342.73126Q212.20929 343.09064 211.58429 343.46564Q210.97491 343.825 210.49054 343.9969L210.49054 342.98126Q211.36554 342.5594 212.02179 341.98126Q212.69366 341.3875 212.97491 340.825L213.64679 340.825L213.64679 349.45ZM216.67804 345.21564Q216.67804 343.6844 216.99054 342.7625Q217.30304 341.825 217.91241 341.325Q218.53741 340.825 219.47491 340.825Q220.16241 340.825 220.67804 341.10626Q221.20929 341.3875 221.55304 341.91876Q221.89679 342.4344 222.08429 343.1844Q222.27179 343.9344 222.27179 345.21564Q222.27179 346.73126 221.95929 347.65314Q221.66241 348.575 221.03741 349.09064Q220.42804 349.59064 219.47491 349.59064Q218.24054 349.59064 217.52179 348.7Q216.67804 347.6375 216.67804 345.21564ZM217.75616 345.21564Q217.75616 347.325 218.25616 348.02814Q218.75616 348.73126 219.47491 348.73126Q220.20929 348.73126 220.69366 348.02814Q221.19366 347.325 221.19366 345.21564Q221.19366 343.09064 220.69366 342.40314Q220.20929 341.7 219.45929 341.7Q218.74054 341.7 218.30304 342.3094Q217.75616 343.09064 217.75616 345.21564ZM223.55304 346.8719L223.55304 345.8094L226.80304 345.8094L226.80304 346.8719L223.55304 346.8719ZM233.22491 348.4344L233.22491 349.45L227.53741 349.45Q227.53741 349.075 227.66241 348.71564Q227.88116 348.1375 228.34991 347.575Q228.83429 347.0125 229.74054 346.27814Q231.14679 345.1219 231.63116 344.45Q232.13116 343.77814 232.13116 343.1844Q232.13116 342.5594 231.67804 342.1375Q231.22491 341.7 230.50616 341.7Q229.74054 341.7 229.28741 342.15314Q228.83429 342.60626 228.81866 343.41876L227.74054 343.3094Q227.84991 342.09064 228.56866 341.46564Q229.30304 340.825 230.53741 340.825Q231.77179 340.825 232.49054 341.5125Q233.20929 342.2 233.20929 343.21564Q233.20929 343.73126 232.99054 344.23126Q232.78741 344.71564 232.28741 345.27814Q231.80304 345.825 230.67804 346.77814Q229.72491 347.575 229.44366 347.8719Q229.17804 348.15314 229.00616 348.4344L233.22491 348.4344ZM240.14679 342.96564L239.09991 343.04376Q238.95929 342.41876 238.70929 342.1375Q238.27179 341.6844 237.64679 341.6844Q237.14679 341.6844 236.75616 341.96564Q236.27179 342.34064 235.97491 343.04376Q235.69366 343.73126 235.67804 345.0125Q236.05304 344.4344 236.59991 344.15314Q237.16241 343.8719 237.77179 343.8719Q238.81866 343.8719 239.55304 344.65314Q240.30304 345.4344 240.30304 346.65314Q240.30304 347.46564 239.94366 348.16876Q239.59991 348.85626 238.99054 349.23126Q238.38116 349.59064 237.61554 349.59064Q236.28741 349.59064 235.45929 348.6219Q234.63116 347.65314 234.63116 345.4344Q234.63116 342.9344 235.55304 341.8094Q236.34991 340.825 237.70929 340.825Q238.72491 340.825 239.36554 341.40314Q240.02179 341.96564 240.14679 342.96564ZM235.84991 346.66876Q235.84991 347.21564 236.06866 347.71564Q236.30304 348.2 236.70929 348.46564Q237.13116 348.73126 237.59991 348.73126Q238.25616 348.73126 238.74054 348.2Q239.22491 347.65314 239.22491 346.73126Q239.22491 345.84064 238.74054 345.325Q238.27179 344.8094 237.55304 344.8094Q236.83429 344.8094 236.33429 345.325Q235.84991 345.84064 235.84991 346.66876ZM244.67804 345.21564Q244.67804 343.6844 244.99054 342.7625Q245.30304 341.825 245.91241 341.325Q246.53741 340.825 247.47491 340.825Q248.16241 340.825 248.67804 341.10626Q249.20929 341.3875 249.55304 341.91876Q249.89679 342.4344 250.08429 343.1844Q250.27179 343.9344 250.27179 345.21564Q250.27179 346.73126 249.95929 347.65314Q249.66241 348.575 249.03741 349.09064Q248.42804 349.59064 247.47491 349.59064Q246.24054 349.59064 245.52179 348.7Q244.67804 347.6375 244.67804 345.21564ZM245.75616 345.21564Q245.75616 347.325 246.25616 348.02814Q246.75616 348.73126 247.47491 348.73126Q248.20929 348.73126 248.69366 348.02814Q249.19366 347.325 249.19366 345.21564Q249.19366 343.09064 248.69366 342.40314Q248.20929 341.7 247.45929 341.7Q246.74054 341.7 246.30304 342.3094Q245.75616 343.09064 245.75616 345.21564ZM252.25616 344.4344L252.25616 343.23126L253.45929 343.23126L253.45929 344.4344L252.25616 344.4344ZM252.25616 349.45L252.25616 348.2469L253.45929 348.2469L253.45929 349.45L252.25616 349.45ZM254.67804 345.21564Q254.67804 343.6844 254.99054 342.7625Q255.30304 341.825 255.91241 341.325Q256.5374 340.825 257.4749 340.825Q258.1624 340.825 258.67804 341.10626Q259.2093 341.3875 259.55304 341.91876Q259.8968 342.4344 260.0843 343.1844Q260.2718 343.9344 260.2718 345.21564Q260.2718 346.73126 259.9593 347.65314Q259.6624 348.575 259.0374 349.09064Q258.42804 349.59064 257.4749 349.59064Q256.24054 349.59064 255.52179 348.7Q254.67804 347.6375 254.67804 345.21564ZM255.75616 345.21564Q255.75616 347.325 256.25616 348.02814Q256.75616 348.73126 257.4749 348.73126Q258.2093 348.73126 258.69366 348.02814Q259.19366 347.325 259.19366 345.21564Q259.19366 343.09064 258.69366 342.40314Q258.2093 341.7 257.4593 341.7Q256.74054 341.7 256.30304 342.3094Q255.75616 343.09064 255.75616 345.21564ZM261.67804 345.21564Q261.67804 343.6844 261.99054 342.7625Q262.30304 341.825 262.9124 341.325Q263.5374 340.825 264.4749 340.825Q265.1624 340.825 265.67804 341.10626Q266.2093 341.3875 266.55304 341.91876Q266.8968 342.4344 267.0843 343.1844Q267.2718 343.9344 267.2718 345.21564Q267.2718 346.73126 266.9593 347.65314Q266.6624 348.575 266.0374 349.09064Q265.42804 349.59064 264.4749 349.59064Q263.24054 349.59064 262.5218 348.7Q261.67804 347.6375 261.67804 345.21564ZM262.75616 345.21564Q262.75616 347.325 263.25616 348.02814Q263.75616 348.73126 264.4749 348.73126Q265.2093 348.73126 265.69366 348.02814Q266.19366 347.325 266.19366 345.21564Q266.19366 343.09064 265.69366 342.40314Q265.2093 341.7 264.4593 341.7Q263.74054 341.7 263.30304 342.3094Q262.75616 343.09064 262.75616 345.21564ZM269.25616 344.4344L269.25616 343.23126L270.4593 343.23126L270.4593 344.4344L269.25616 344.4344ZM269.25616 349.45L269.25616 348.2469L270.4593 348.2469L270.4593 349.45L269.25616 349.45ZM271.67804 345.21564Q271.67804 343.6844 271.99054 342.7625Q272.30304 341.825 272.9124 341.325Q273.5374 340.825 274.4749 340.825Q275.1624 340.825 275.67804 341.10626Q276.2093 341.3875 276.55304 341.91876Q276.8968 342.4344 277.0843 343.1844Q277.2718 343.9344 277.2718 345.21564Q277.2718 346.73126 276.9593 347.65314Q276.6624 348.575 276.0374 349.09064Q275.42804 349.59064 274.4749 349.59064Q273.24054 349.59064 272.5218 348.7Q271.67804 347.6375 271.67804 345.21564ZM272.75616 345.21564Q272.75616 347.325 273.25616 348.02814Q273.75616 348.73126 274.4749 348.73126Q275.2093 348.73126 275.69366 348.02814Q276.19366 347.325 276.19366 345.21564Q276.19366 343.09064 275.69366 342.40314Q275.2093 341.7 274.4593 341.7Q273.74054 341.7 273.30304 342.3094Q272.75616 343.09064 272.75616 345.21564ZM278.67804 345.21564Q278.67804 343.6844 278.99054 342.7625Q279.30304 341.825 279.9124 341.325Q280.5374 340.825 281.4749 340.825Q282.1624 340.825 282.67804 341.10626Q283.2093 341.3875 283.55304 341.91876Q283.8968 342.4344 284.0843 343.1844Q284.2718 343.9344 284.2718 345.21564Q284.2718 346.73126 283.9593 347.65314Q283.6624 348.575 283.0374 349.09064Q282.42804 349.59064 281.4749 349.59064Q280.24054 349.59064 279.5218 348.7Q278.67804 347.6375 278.67804 345.21564ZM279.75616 345.21564Q279.75616 347.325 280.25616 348.02814Q280.75616 348.73126 281.4749 348.73126Q282.2093 348.73126 282.69366 348.02814Q283.19366 347.325 283.19366 345.21564Q283.19366 343.09064 282.69366 342.40314Q282.2093 341.7 281.4593 341.7Q280.74054 341.7 280.30304 342.3094Q279.75616 343.09064 279.75616 345.21564Z" fill-rule="nonzero"/><path fill="#000000" d="M299.35574 348.4344L299.35574 349.45L293.66824 349.45Q293.66824 349.075 293.79324 348.71564Q294.012 348.1375 294.48074 347.575Q294.96512 347.0125 295.87137 346.27814Q297.27762 345.1219 297.762 344.45Q298.262 343.77814 298.262 343.1844Q298.262 342.5594 297.80887 342.1375Q297.35574 341.7 296.637 341.7Q295.87137 341.7 295.41824 342.15314Q294.96512 342.60626 294.9495 343.41876L293.87137 343.3094Q293.98074 342.09064 294.6995 341.46564Q295.43387 340.825 296.66824 340.825Q297.90262 340.825 298.62137 341.5125Q299.34012 342.2 299.34012 343.21564Q299.34012 343.73126 299.12137 344.23126Q298.91824 344.71564 298.41824 345.27814Q297.93387 345.825 296.80887 346.77814Q295.85574 347.575 295.5745 347.8719Q295.30887 348.15314 295.137 348.4344L299.35574 348.4344ZM300.80887 345.21564Q300.80887 343.6844 301.12137 342.7625Q301.43387 341.825 302.04324 341.325Q302.66824 340.825 303.60574 340.825Q304.29324 340.825 304.80887 341.10626Q305.34012 341.3875 305.68387 341.91876Q306.02762 342.4344 306.21512 343.1844Q306.40262 343.9344 306.40262 345.21564Q306.40262 346.73126 306.09012 347.65314Q305.79324 348.575 305.16824 349.09064Q304.55887 349.59064 303.60574 349.59064Q302.37137 349.59064 301.65262 348.7Q300.80887 347.6375 300.80887 345.21564ZM301.887 345.21564Q301.887 347.325 302.387 348.02814Q302.887 348.73126 303.60574 348.73126Q304.34012 348.73126 304.8245 348.02814Q305.3245 347.325 305.3245 345.21564Q305.3245 343.09064 304.8245 342.40314Q304.34012 341.7 303.59012 341.7Q302.87137 341.7 302.43387 342.3094Q301.887 343.09064 301.887 345.21564ZM313.35574 348.4344L313.35574 349.45L307.66824 349.45Q307.66824 349.075 307.79324 348.71564Q308.012 348.1375 308.48074 347.575Q308.96512 347.0125 309.87137 346.27814Q311.27762 345.1219 311.762 344.45Q312.262 343.77814 312.262 343.1844Q312.262 342.5594 311.80887 342.1375Q311.35574 341.7 310.637 341.7Q309.87137 341.7 309.41824 342.15314Q308.96512 342.60626 308.9495 343.41876L307.87137 343.3094Q307.98074 342.09064 308.6995 341.46564Q309.43387 340.825 310.66824 340.825Q311.90262 340.825 312.62137 341.5125Q313.34012 342.2 313.34012 343.21564Q313.34012 343.73126 313.12137 344.23126Q312.91824 344.71564 312.41824 345.27814Q311.93387 345.825 310.80887 346.77814Q309.85574 347.575 309.5745 347.8719Q309.30887 348.15314 309.137 348.4344L313.35574 348.4344ZM314.80887 347.2L315.91824 347.10626Q316.04324 347.91876 316.48074 348.325Q316.93387 348.73126 317.5745 348.73126Q318.3245 348.73126 318.85574 348.15314Q319.387 347.575 319.387 346.6375Q319.387 345.73126 318.87137 345.21564Q318.37137 344.6844 317.54324 344.6844Q317.04324 344.6844 316.62137 344.91876Q316.21512 345.15314 315.98074 345.5125L314.99637 345.3875L315.8245 340.98126L320.10574 340.98126L320.10574 341.98126L316.66824 341.98126L316.21512 344.29376Q316.98074 343.7469 317.8245 343.7469Q318.9495 343.7469 319.71512 344.52814Q320.49637 345.3094 320.49637 346.54376Q320.49637 347.7 319.8245 348.5594Q318.99637 349.59064 317.5745 349.59064Q316.40262 349.59064 315.65262 348.9344Q314.91824 348.27814 314.80887 347.2ZM321.68387 346.8719L321.68387 345.8094L324.93387 345.8094L324.93387 346.8719L321.68387 346.8719ZM329.77762 349.45L328.73074 349.45L328.73074 342.73126Q328.34012 343.09064 327.71512 343.46564Q327.10574 343.825 326.62137 343.9969L326.62137 342.98126Q327.49637 342.5594 328.15262 341.98126Q328.8245 341.3875 329.10574 340.825L329.77762 340.825L329.77762 349.45ZM336.77762 349.45L335.73074 349.45L335.73074 342.73126Q335.34012 343.09064 334.71512 343.46564Q334.10574 343.825 333.62137 343.9969L333.62137 342.98126Q334.49637 342.5594 335.15262 341.98126Q335.8245 341.3875 336.10574 340.825L336.77762 340.825L336.77762 349.45ZM339.68387 346.8719L339.68387 345.8094L342.93387 345.8094L342.93387 346.8719L339.68387 346.8719ZM343.80887 345.21564Q343.80887 343.6844 344.12137 342.7625Q344.43387 341.825 345.04324 341.325Q345.66824 340.825 346.60574 340.825Q347.29324 340.825 347.80887 341.10626Q348.34012 341.3875 348.68387 341.91876Q349.02762 342.4344 349.21512 343.1844Q349.40262 343.9344 349.40262 345.21564Q349.40262 346.73126 349.09012 347.65314Q348.79324 348.575 348.16824 349.09064Q347.55887 349.59064 346.60574 349.59064Q345.37137 349.59064 344.65262 348.7Q343.80887 347.6375 343.80887 345.21564ZM344.887 345.21564Q344.887 347.325 345.387 348.02814Q345.887 348.73126 346.60574 348.73126Q347.34012 348.73126 347.8245 348.02814Q348.3245 347.325 348.3245 345.21564Q348.3245 343.09064 347.8245 342.40314Q347.34012 341.7 346.59012 341.7Q345.87137 341.7 345.43387 342.3094Q344.887 343.09064 344.887 345.21564ZM350.96512 347.46564L351.98074 347.3719Q352.10574 348.09064 352.46512 348.41876Q352.84012 348.73126 353.40262 348.73126Q353.887 348.73126 354.24637 348.5125Q354.62137 348.27814 354.85574 347.91876Q355.09012 347.54376 355.24637 346.91876Q355.40262 346.27814 355.40262 345.6219Q355.40262 345.54376 355.40262 345.40314Q355.09012 345.90314 354.54324 346.23126Q353.99637 346.54376 353.35574 346.54376Q352.27762 346.54376 351.54324 345.77814Q350.80887 344.9969 350.80887 343.73126Q350.80887 342.41876 351.5745 341.6219Q352.35574 340.825 353.512 340.825Q354.34012 340.825 355.02762 341.27814Q355.73074 341.73126 356.09012 342.575Q356.4495 343.40314 356.4495 344.98126Q356.4495 346.6219 356.09012 347.60626Q355.74637 348.575 355.02762 349.09064Q354.3245 349.59064 353.387 349.59064Q352.37137 349.59064 351.73074 349.04376Q351.09012 348.48126 350.96512 347.46564ZM355.27762 343.66876Q355.27762 342.7625 354.79324 342.23126Q354.3245 341.7 353.637 341.7Q352.93387 341.7 352.40262 342.27814Q351.887 342.84064 351.887 343.7625Q351.887 344.575 352.387 345.09064Q352.887 345.60626 353.60574 345.60626Q354.34012 345.60626 354.80887 345.09064Q355.27762 344.575 355.27762 343.66876ZM360.80887 345.21564Q360.80887 343.6844 361.12137 342.7625Q361.43387 341.825 362.04324 341.325Q362.66824 340.825 363.60574 340.825Q364.29324 340.825 364.80887 341.10626Q365.34012 341.3875 365.68387 341.91876Q366.02762 342.4344 366.21512 343.1844Q366.40262 343.9344 366.40262 345.21564Q366.40262 346.73126 366.09012 347.65314Q365.79324 348.575 365.16824 349.09064Q364.55887 349.59064 363.60574 349.59064Q362.37137 349.59064 361.65262 348.7Q360.80887 347.6375 360.80887 345.21564ZM361.887 345.21564Q361.887 347.325 362.387 348.02814Q362.887 348.73126 363.60574 348.73126Q364.34012 348.73126 364.8245 348.02814Q365.3245 347.325 365.3245 345.21564Q365.3245 343.09064 364.8245 342.40314Q364.34012 341.7 363.59012 341.7Q362.87137 341.7 362.43387 342.3094Q361.887 343.09064 361.887 345.21564ZM368.387 344.4344L368.387 343.23126L369.59012 343.23126L369.59012 344.4344L368.387 344.4344ZM368.387 349.45L368.387 348.2469L369.59012 348.2469L369.59012 349.45L368.387 349.45ZM370.80887 345.21564Q370.80887 343.6844 371.12137 342.7625Q371.43387 341.825 372.04324 341.325Q372.66824 340.825 373.60574 340.825Q374.29324 340.825 374.80887 341.10626Q375.34012 341.3875 375.68387 341.91876Q376.02762 342.4344 376.21512 343.1844Q376.40262 343.9344 376.40262 345.21564Q376.40262 346.73126 376.09012 347.65314Q375.79324 348.575 375.16824 349.09064Q374.55887 349.59064 373.60574 349.59064Q372.37137 349.59064 371.65262 348.7Q370.80887 347.6375 370.80887 345.21564ZM371.887 345.21564Q371.887 347.325 372.387 348.02814Q372.887 348.73126 373.60574 348.73126Q374.34012 348.73126 374.8245 348.02814Q375.3245 347.325 375.3245 345.21564Q375.3245 343.09064 374.8245 342.40314Q374.34012 341.7 373.59012 341.7Q372.87137 341.7 372.43387 342.3094Q371.887 343.09064 371.887 345.21564ZM377.80887 345.21564Q377.80887 343.6844 378.12137 342.7625Q378.43387 341.825 379.04324 341.325Q379.66824 340.825 380.60574 340.825Q381.29324 340.825 381.80887 341.10626Q382.34012 341.3875 382.68387 341.91876Q383.02762 342.4344 383.21512 343.1844Q383.40262 343.9344 383.40262 345.21564Q383.40262 346.73126 383.09012 347.65314Q382.79324 348.575 382.16824 349.09064Q381.55887 349.59064 380.60574 349.59064Q379.37137 349.59064 378.65262 348.7Q377.80887 347.6375 377.80887 345.21564ZM378.887 345.21564Q378.887 347.325 379.387 348.02814Q379.887 348.73126 380.60574 348.73126Q381.34012 348.73126 381.8245 348.02814Q382.3245 347.325 382.3245 345.21564Q382.3245 343.09064 381.8245 342.40314Q381.34012 341.7 380.59012 341.7Q379.87137 341.7 379.43387 342.3094Q378.887 343.09064 378.887 345.21564ZM385.387 344.4344L385.387 343.23126L386.59012 343.23126L386.59012 344.4344L385.387 344.4344ZM385.387 349.45L385.387 348.2469L386.59012 348.2469L386.59012 349.45L385.387 349.45ZM387.80887 345.21564Q387.80887 343.6844 388.12137 342.7625Q388.43387 341.825 389.04324 341.325Q389.66824 340.825 390.60574 340.825Q391.29324 340.825 391.80887 341.10626Q392.34012 341.3875 392.68387 341.91876Q393.02762 342.4344 393.21512 343.1844Q393.40262 343.9344 393.40262 345.21564Q393.40262 346.73126 393.09012 347.65314Q392.79324 348.575 392.16824 349.09064Q391.55887 349.59064 390.60574 349.59064Q389.37137 349.59064 388.65262 348.7Q387.80887 347.6375 387.80887 345.21564ZM388.887 345.21564Q388.887 347.325 389.387 348.02814Q389.887 348.73126 390.60574 348.73126Q391.34012 348.73126 391.8245 348.02814Q392.3245 347.325 392.3245 345.21564Q392.3245 343.09064 391.8245 342.40314Q391.34012 341.7 390.59012 341.7Q389.87137 341.7 389.43387 342.3094Q388.887 343.09064 388.887 345.21564ZM394.80887 345.21564Q394.80887 343.6844 395.12137 342.7625Q395.43387 341.825 396.04324 341.325Q396.66824 340.825 397.60574 340.825Q398.29324 340.825 398.80887 341.10626Q399.34012 341.3875 399.68387 341.91876Q400.02762 342.4344 400.21512 343.1844Q400.40262 343.9344 400.40262 345.21564Q400.40262 346.73126 400.09012 347.65314Q399.79324 348.575 399.16824 349.09064Q398.55887 349.59064 397.60574 349.59064Q396.37137 349.59064 395.65262 348.7Q394.80887 347.6375 394.80887 345.21564ZM395.887 345.21564Q395.887 347.325 396.387 348.02814Q396.887 348.73126 397.60574 348.73126Q398.34012 348.73126 398.8245 348.02814Q399.3245 347.325 399.3245 345.21564Q399.3245 343.09064 398.8245 342.40314Q398.34012 341.7 397.59012 341.7Q396.87137 341.7 396.43387 342.3094Q395.887 343.09064 395.887 345.21564Z" fill-rule="nonzero"/><path fill="#000000" d="M415.48657 348.4344L415.48657 349.45L409.79907 349.45Q409.79907 349.075 409.92407 348.71564Q410.14282 348.1375 410.61157 347.575Q411.09595 347.0125 412.0022 346.27814Q413.40845 345.1219 413.89282 344.45Q414.39282 343.77814 414.39282 343.1844Q414.39282 342.5594 413.9397 342.1375Q413.48657 341.7 412.76782 341.7Q412.0022 341.7 411.54907 342.15314Q411.09595 342.60626 411.08032 343.41876L410.0022 343.3094Q410.11157 342.09064 410.83032 341.46564Q411.5647 340.825 412.79907 340.825Q414.03345 340.825 414.7522 341.5125Q415.47095 342.2 415.47095 343.21564Q415.47095 343.73126 415.2522 344.23126Q415.04907 344.71564 414.54907 345.27814Q414.0647 345.825 412.9397 346.77814Q411.98657 347.575 411.70532 347.8719Q411.4397 348.15314 411.26782 348.4344L415.48657 348.4344ZM416.9397 345.21564Q416.9397 343.6844 417.2522 342.7625Q417.5647 341.825 418.17407 341.325Q418.79907 340.825 419.73657 340.825Q420.42407 340.825 420.9397 341.10626Q421.47095 341.3875 421.8147 341.91876Q422.15845 342.4344 422.34595 343.1844Q422.53345 343.9344 422.53345 345.21564Q422.53345 346.73126 422.22095 347.65314Q421.92407 348.575 421.29907 349.09064Q420.6897 349.59064 419.73657 349.59064Q418.5022 349.59064 417.78345 348.7Q416.9397 347.6375 416.9397 345.21564ZM418.01782 345.21564Q418.01782 347.325 418.51782 348.02814Q419.01782 348.73126 419.73657 348.73126Q420.47095 348.73126 420.95532 348.02814Q421.45532 347.325 421.45532 345.21564Q421.45532 343.09064 420.95532 342.40314Q420.47095 341.7 419.72095 341.7Q419.0022 341.7 418.5647 342.3094Q418.01782 343.09064 418.01782 345.21564ZM429.48657 348.4344L429.48657 349.45L423.79907 349.45Q423.79907 349.075 423.92407 348.71564Q424.14282 348.1375 424.61157 347.575Q425.09595 347.0125 426.0022 346.27814Q427.40845 345.1219 427.89282 344.45Q428.39282 343.77814 428.39282 343.1844Q428.39282 342.5594 427.9397 342.1375Q427.48657 341.7 426.76782 341.7Q426.0022 341.7 425.54907 342.15314Q425.09595 342.60626 425.08032 343.41876L424.0022 343.3094Q424.11157 342.09064 424.83032 341.46564Q425.5647 340.825 426.79907 340.825Q428.03345 340.825 428.7522 341.5125Q429.47095 342.2 429.47095 343.21564Q429.47095 343.73126 429.2522 344.23126Q429.04907 344.71564 428.54907 345.27814Q428.0647 345.825 426.9397 346.77814Q425.98657 347.575 425.70532 347.8719Q425.4397 348.15314 425.26782 348.4344L429.48657 348.4344ZM430.9397 347.2L432.04907 347.10626Q432.17407 347.91876 432.61157 348.325Q433.0647 348.73126 433.70532 348.73126Q434.45532 348.73126 434.98657 348.15314Q435.51782 347.575 435.51782 346.6375Q435.51782 345.73126 435.0022 345.21564Q434.5022 344.6844 433.67407 344.6844Q433.17407 344.6844 432.7522 344.91876Q432.34595 345.15314 432.11157 345.5125L431.1272 345.3875L431.95532 340.98126L436.23657 340.98126L436.23657 341.98126L432.79907 341.98126L432.34595 344.29376Q433.11157 343.7469 433.95532 343.7469Q435.08032 343.7469 435.84595 344.52814Q436.6272 345.3094 436.6272 346.54376Q436.6272 347.7 435.95532 348.5594Q435.1272 349.59064 433.70532 349.59064Q432.53345 349.59064 431.78345 348.9344Q431.04907 348.27814 430.9397 347.2ZM437.8147 346.8719L437.8147 345.8094L441.0647 345.8094L441.0647 346.8719L437.8147 346.8719ZM445.90845 349.45L444.86157 349.45L444.86157 342.73126Q444.47095 343.09064 443.84595 343.46564Q443.23657 343.825 442.7522 343.9969L442.7522 342.98126Q443.6272 342.5594 444.28345 341.98126Q444.95532 341.3875 445.23657 340.825L445.90845 340.825L445.90845 349.45ZM452.90845 349.45L451.86157 349.45L451.86157 342.73126Q451.47095 343.09064 450.84595 343.46564Q450.23657 343.825 449.7522 343.9969L449.7522 342.98126Q450.6272 342.5594 451.28345 341.98126Q451.95532 341.3875 452.23657 340.825L452.90845 340.825L452.90845 349.45ZM455.8147 346.8719L455.8147 345.8094L459.0647 345.8094L459.0647 346.8719L455.8147 346.8719ZM465.48657 348.4344L465.48657 349.45L459.79907 349.45Q459.79907 349.075 459.92407 348.71564Q460.14282 348.1375 460.61157 347.575Q461.09595 347.0125 462.0022 346.27814Q463.40845 345.1219 463.89282 344.45Q464.39282 343.77814 464.39282 343.1844Q464.39282 342.5594 463.9397 342.1375Q463.48657 341.7 462.76782 341.7Q462.0022 341.7 461.54907 342.15314Q461.09595 342.60626 461.08032 343.41876L460.0022 343.3094Q460.11157 342.09064 460.83032 341.46564Q461.5647 340.825 462.79907 340.825Q464.03345 340.825 464.7522 341.5125Q465.47095 342.2 465.47095 343.21564Q465.47095 343.73126 465.2522 344.23126Q465.04907 344.71564 464.54907 345.27814Q464.0647 345.825 462.9397 346.77814Q461.98657 347.575 461.70532 347.8719Q461.4397 348.15314 461.26782 348.4344L465.48657 348.4344ZM466.9397 347.1844L468.0022 347.04376Q468.17407 347.9344 468.61157 348.34064Q469.04907 348.73126 469.67407 348.73126Q470.42407 348.73126 470.9397 348.21564Q471.45532 347.7 471.45532 346.9344Q471.45532 346.21564 470.97095 345.7469Q470.5022 345.2625 469.76782 345.2625Q469.47095 345.2625 469.01782 345.3875L469.14282 344.45Q469.2522 344.46564 469.3147 344.46564Q469.98657 344.46564 470.51782 344.1219Q471.0647 343.7625 471.0647 343.02814Q471.0647 342.45 470.67407 342.075Q470.28345 341.6844 469.65845 341.6844Q469.04907 341.6844 468.6272 342.075Q468.22095 342.46564 468.11157 343.23126L467.04907 343.04376Q467.23657 341.9969 467.92407 341.41876Q468.61157 340.825 469.6272 340.825Q470.33032 340.825 470.92407 341.1375Q471.51782 341.4344 471.83032 341.95Q472.14282 342.46564 472.14282 343.0594Q472.14282 343.60626 471.84595 344.075Q471.54907 344.52814 470.97095 344.79376Q471.72095 344.96564 472.14282 345.52814Q472.5647 346.075 472.5647 346.91876Q472.5647 348.04376 471.73657 348.825Q470.92407 349.60626 469.67407 349.60626Q468.54907 349.60626 467.79907 348.9344Q467.04907 348.2469 466.9397 347.1844ZM476.9397 345.21564Q476.9397 343.6844 477.2522 342.7625Q477.5647 341.825 478.17407 341.325Q478.79907 340.825 479.73657 340.825Q480.42407 340.825 480.9397 341.10626Q481.47095 341.3875 481.8147 341.91876Q482.15845 342.4344 482.34595 343.1844Q482.53345 343.9344 482.53345 345.21564Q482.53345 346.73126 482.22095 347.65314Q481.92407 348.575 481.29907 349.09064Q480.6897 349.59064 479.73657 349.59064Q478.5022 349.59064 477.78345 348.7Q476.9397 347.6375 476.9397 345.21564ZM478.01782 345.21564Q478.01782 347.325 478.51782 348.02814Q479.01782 348.73126 479.73657 348.73126Q480.47095 348.73126 480.95532 348.02814Q481.45532 347.325 481.45532 345.21564Q481.45532 343.09064 480.95532 342.40314Q480.47095 341.7 479.72095 341.7Q479.0022 341.7 478.5647 342.3094Q478.01782 343.09064 478.01782 345.21564ZM484.51782 344.4344L484.51782 343.23126L485.72095 343.23126L485.72095 344.4344L484.51782 344.4344ZM484.51782 349.45L484.51782 348.2469L485.72095 348.2469L485.72095 349.45L484.51782 349.45ZM486.9397 345.21564Q486.9397 343.6844 487.2522 342.7625Q487.5647 341.825 488.17407 341.325Q488.79907 340.825 489.73657 340.825Q490.42407 340.825 490.9397 341.10626Q491.47095 341.3875 491.8147 341.91876Q492.15845 342.4344 492.34595 343.1844Q492.53345 343.9344 492.53345 345.21564Q492.53345 346.73126 492.22095 347.65314Q491.92407 348.575 491.29907 349.09064Q490.6897 349.59064 489.73657 349.59064Q488.5022 349.59064 487.78345 348.7Q486.9397 347.6375 486.9397 345.21564ZM488.01782 345.21564Q488.01782 347.325 488.51782 348.02814Q489.01782 348.73126 489.73657 348.73126Q490.47095 348.73126 490.95532 348.02814Q491.45532 347.325 491.45532 345.21564Q491.45532 343.09064 490.95532 342.40314Q490.47095 341.7 489.72095 341.7Q489.0022 341.7 488.5647 342.3094Q488.01782 343.09064 488.01782 345.21564ZM493.9397 345.21564Q493.9397 343.6844 494.2522 342.7625Q494.5647 341.825 495.17407 341.325Q495.79907 340.825 496.73657 340.825Q497.42407 340.825 497.9397 341.10626Q498.47095 341.3875 498.8147 341.91876Q499.15845 342.4344 499.34595 343.1844Q499.53345 343.9344 499.53345 345.21564Q499.53345 346.73126 499.22095 347.65314Q498.92407 348.575 498.29907 349.09064Q497.6897 349.59064 496.73657 349.59064Q495.5022 349.59064 494.78345 348.7Q493.9397 347.6375 493.9397 345.21564ZM495.01782 345.21564Q495.01782 347.325 495.51782 348.02814Q496.01782 348.73126 496.73657 348.73126Q497.47095 348.73126 497.95532 348.02814Q498.45532 347.325 498.45532 345.21564Q498.45532 343.09064 497.95532 342.40314Q497.47095 341.7 496.72095 341.7Q496.0022 341.7 495.5647 342.3094Q495.01782 343.09064 495.01782 345.21564ZM501.51782 344.4344L501.51782 343.23126L502.72095 343.23126L502.72095 344.4344L501.51782 344.4344ZM501.51782 349.45L501.51782 348.2469L502.72095 348.2469L502.72095 349.45L501.51782 349.45ZM503.9397 345.21564Q503.9397 343.6844 504.2522 342.7625Q504.5647 341.825 505.17407 341.325Q505.79907 340.825 506.73657 340.825Q507.42407 340.825 507.9397 341.10626Q508.47095 341.3875 508.8147 341.91876Q509.15845 342.4344 509.34595 343.1844Q509.53345 343.9344 509.53345 345.21564Q509.53345 346.73126 509.22095 347.65314Q508.92407 348.575 508.29907 349.09064Q507.6897 349.59064 506.73657 349.59064Q505.5022 349.59064 504.78345 348.7Q503.9397 347.6375 503.9397 345.21564ZM505.01782 345.21564Q505.01782 347.325 505.51782 348.02814Q506.01782 348.73126 506.73657 348.73126Q507.47095 348.73126 507.95532 348.02814Q508.45532 347.325 508.45532 345.21564Q508.45532 343.09064 507.95532 342.40314Q507.47095 341.7 506.72095 341.7Q506.0022 341.7 505.5647 342.3094Q505.01782 343.09064 505.01782 345.21564ZM510.9397 345.21564Q510.9397 343.6844 511.2522 342.7625Q511.5647 341.825 512.1741 341.325Q512.7991 340.825 513.7366 340.825Q514.4241 340.825 514.9397 341.10626Q515.47095 341.3875 515.8147 341.91876Q516.15845 342.4344 516.34595 343.1844Q516.53345 343.9344 516.53345 345.21564Q516.53345 346.73126 516.22095 347.65314Q515.9241 348.575 515.2991 349.09064Q514.6897 349.59064 513.7366 349.59064Q512.5022 349.59064 511.78345 348.7Q510.9397 347.6375 510.9397 345.21564ZM512.0178 345.21564Q512.0178 347.325 512.5178 348.02814Q513.0178 348.73126 513.7366 348.73126Q514.47095 348.73126 514.9553 348.02814Q515.4553 347.325 515.4553 345.21564Q515.4553 343.09064 514.9553 342.40314Q514.47095 341.7 513.72095 341.7Q513.0022 341.7 512.5647 342.3094Q512.0178 343.09064 512.0178 345.21564Z" fill-rule="nonzero"/><path fill="#000000" d="M531.6174 348.4344L531.6174 349.45L525.9299 349.45Q525.9299 349.075 526.0549 348.71564Q526.2736 348.1375 526.7424 347.575Q527.22675 347.0125 528.133 346.27814Q529.53925 345.1219 530.0236 344.45Q530.5236 343.77814 530.5236 343.1844Q530.5236 342.5594 530.0705 342.1375Q529.6174 341.7 528.8986 341.7Q528.133 341.7 527.6799 342.15314Q527.22675 342.60626 527.2111 343.41876L526.133 343.3094Q526.2424 342.09064 526.9611 341.46564Q527.6955 340.825 528.9299 340.825Q530.16425 340.825 530.883 341.5125Q531.60175 342.2 531.60175 343.21564Q531.60175 343.73126 531.383 344.23126Q531.1799 344.71564 530.6799 345.27814Q530.1955 345.825 529.0705 346.77814Q528.1174 347.575 527.8361 347.8719Q527.5705 348.15314 527.3986 348.4344L531.6174 348.4344ZM533.0705 345.21564Q533.0705 343.6844 533.383 342.7625Q533.6955 341.825 534.3049 341.325Q534.9299 340.825 535.8674 340.825Q536.5549 340.825 537.0705 341.10626Q537.60175 341.3875 537.9455 341.91876Q538.28925 342.4344 538.47675 343.1844Q538.66425 343.9344 538.66425 345.21564Q538.66425 346.73126 538.35175 347.65314Q538.0549 348.575 537.4299 349.09064Q536.8205 349.59064 535.8674 349.59064Q534.633 349.59064 533.91425 348.7Q533.0705 347.6375 533.0705 345.21564ZM534.1486 345.21564Q534.1486 347.325 534.6486 348.02814Q535.1486 348.73126 535.8674 348.73126Q536.60175 348.73126 537.0861 348.02814Q537.5861 347.325 537.5861 345.21564Q537.5861 343.09064 537.0861 342.40314Q536.60175 341.7 535.85175 341.7Q535.133 341.7 534.6955 342.3094Q534.1486 343.09064 534.1486 345.21564ZM545.6174 348.4344L545.6174 349.45L539.9299 349.45Q539.9299 349.075 540.0549 348.71564Q540.2736 348.1375 540.7424 347.575Q541.22675 347.0125 542.133 346.27814Q543.53925 345.1219 544.0236 344.45Q544.5236 343.77814 544.5236 343.1844Q544.5236 342.5594 544.0705 342.1375Q543.6174 341.7 542.8986 341.7Q542.133 341.7 541.6799 342.15314Q541.22675 342.60626 541.2111 343.41876L540.133 343.3094Q540.2424 342.09064 540.9611 341.46564Q541.6955 340.825 542.9299 340.825Q544.16425 340.825 544.883 341.5125Q545.60175 342.2 545.60175 343.21564Q545.60175 343.73126 545.383 344.23126Q545.1799 344.71564 544.6799 345.27814Q544.1955 345.825 543.0705 346.77814Q542.1174 347.575 541.8361 347.8719Q541.5705 348.15314 541.3986 348.4344L545.6174 348.4344ZM547.0705 347.2L548.1799 347.10626Q548.3049 347.91876 548.7424 348.325Q549.1955 348.73126 549.8361 348.73126Q550.5861 348.73126 551.1174 348.15314Q551.6486 347.575 551.6486 346.6375Q551.6486 345.73126 551.133 345.21564Q550.633 344.6844 549.8049 344.6844Q549.3049 344.6844 548.883 344.91876Q548.47675 345.15314 548.2424 345.5125L547.258 345.3875L548.0861 340.98126L552.3674 340.98126L552.3674 341.98126L548.9299 341.98126L548.47675 344.29376Q549.2424 343.7469 550.0861 343.7469Q551.2111 343.7469 551.97675 344.52814Q552.758 345.3094 552.758 346.54376Q552.758 347.7 552.0861 348.5594Q551.258 349.59064 549.8361 349.59064Q548.66425 349.59064 547.91425 348.9344Q547.1799 348.27814 547.0705 347.2ZM553.9455 346.8719L553.9455 345.8094L557.1955 345.8094L557.1955 346.8719L553.9455 346.8719ZM562.03925 349.45L560.9924 349.45L560.9924 342.73126Q560.60175 343.09064 559.97675 343.46564Q559.3674 343.825 558.883 343.9969L558.883 342.98126Q559.758 342.5594 560.41425 341.98126Q561.0861 341.3875 561.3674 340.825L562.03925 340.825L562.03925 349.45ZM570.6174 348.4344L570.6174 349.45L564.9299 349.45Q564.9299 349.075 565.0549 348.71564Q565.2736 348.1375 565.7424 347.575Q566.22675 347.0125 567.133 346.27814Q568.53925 345.1219 569.0236 344.45Q569.5236 343.77814 569.5236 343.1844Q569.5236 342.5594 569.0705 342.1375Q568.6174 341.7 567.8986 341.7Q567.133 341.7 566.6799 342.15314Q566.22675 342.60626 566.2111 343.41876L565.133 343.3094Q565.2424 342.09064 565.9611 341.46564Q566.6955 340.825 567.9299 340.825Q569.16425 340.825 569.883 341.5125Q570.60175 342.2 570.60175 343.21564Q570.60175 343.73126 570.383 344.23126Q570.1799 344.71564 569.6799 345.27814Q569.1955 345.825 568.0705 346.77814Q567.1174 347.575 566.8361 347.8719Q566.5705 348.15314 566.3986 348.4344L570.6174 348.4344ZM571.9455 346.8719L571.9455 345.8094L575.1955 345.8094L575.1955 346.8719L571.9455 346.8719ZM576.0705 345.21564Q576.0705 343.6844 576.383 342.7625Q576.6955 341.825 577.3049 341.325Q577.9299 340.825 578.8674 340.825Q579.5549 340.825 580.0705 341.10626Q580.60175 341.3875 580.9455 341.91876Q581.28925 342.4344 581.47675 343.1844Q581.66425 343.9344 581.66425 345.21564Q581.66425 346.73126 581.35175 347.65314Q581.0549 348.575 580.4299 349.09064Q579.8205 349.59064 578.8674 349.59064Q577.633 349.59064 576.91425 348.7Q576.0705 347.6375 576.0705 345.21564ZM577.1486 345.21564Q577.1486 347.325 577.6486 348.02814Q578.1486 348.73126 578.8674 348.73126Q579.60175 348.73126 580.0861 348.02814Q580.5861 347.325 580.5861 345.21564Q580.5861 343.09064 580.0861 342.40314Q579.60175 341.7 578.85175 341.7Q578.133 341.7 577.6955 342.3094Q577.1486 343.09064 577.1486 345.21564ZM583.133 341.98126L583.133 340.96564L588.6955 340.96564L588.6955 341.79376Q587.883 342.66876 587.0705 344.1219Q586.2736 345.5594 585.8361 347.09064Q585.508 348.16876 585.4299 349.45L584.3361 349.45Q584.35175 348.4344 584.72675 346.9969Q585.1174 345.5594 585.8205 344.23126Q586.53925 342.90314 587.35175 341.98126L583.133 341.98126ZM593.0705 345.21564Q593.0705 343.6844 593.383 342.7625Q593.6955 341.825 594.3049 341.325Q594.9299 340.825 595.8674 340.825Q596.5549 340.825 597.0705 341.10626Q597.60175 341.3875 597.9455 341.91876Q598.28925 342.4344 598.47675 343.1844Q598.66425 343.9344 598.66425 345.21564Q598.66425 346.73126 598.35175 347.65314Q598.0549 348.575 597.4299 349.09064Q596.8205 349.59064 595.8674 349.59064Q594.633 349.59064 593.91425 348.7Q593.0705 347.6375 593.0705 345.21564ZM594.1486 345.21564Q594.1486 347.325 594.6486 348.02814Q595.1486 348.73126 595.8674 348.73126Q596.60175 348.73126 597.0861 348.02814Q597.5861 347.325 597.5861 345.21564Q597.5861 343.09064 597.0861 342.40314Q596.60175 341.7 595.85175 341.7Q595.133 341.7 594.6955 342.3094Q594.1486 343.09064 594.1486 345.21564ZM600.6486 344.4344L600.6486 343.23126L601.85175 343.23126L601.85175 344.4344L600.6486 344.4344ZM600.6486 349.45L600.6486 348.2469L601.85175 348.2469L601.85175 349.45L600.6486 349.45ZM603.0705 345.21564Q603.0705 343.6844 603.383 342.7625Q603.6955 341.825 604.3049 341.325Q604.9299 340.825 605.8674 340.825Q606.5549 340.825 607.0705 341.10626Q607.60175 341.3875 607.9455 341.91876Q608.28925 342.4344 608.47675 343.1844Q608.66425 343.9344 608.66425 345.21564Q608.66425 346.73126 608.35175 347.65314Q608.0549 348.575 607.4299 349.09064Q606.8205 349.59064 605.8674 349.59064Q604.633 349.59064 603.91425 348.7Q603.0705 347.6375 603.0705 345.21564ZM604.1486 345.21564Q604.1486 347.325 604.6486 348.02814Q605.1486 348.73126 605.8674 348.73126Q606.60175 348.73126 607.0861 348.02814Q607.5861 347.325 607.5861 345.21564Q607.5861 343.09064 607.0861 342.40314Q606.60175 341.7 605.85175 341.7Q605.133 341.7 604.6955 342.3094Q604.1486 343.09064 604.1486 345.21564ZM610.0705 345.21564Q610.0705 343.6844 610.383 342.7625Q610.6955 341.825 611.3049 341.325Q611.9299 340.825 612.8674 340.825Q613.5549 340.825 614.0705 341.10626Q614.60175 341.3875 614.9455 341.91876Q615.28925 342.4344 615.47675 343.1844Q615.66425 343.9344 615.66425 345.21564Q615.66425 346.73126 615.35175 347.65314Q615.0549 348.575 614.4299 349.09064Q613.8205 349.59064 612.8674 349.59064Q611.633 349.59064 610.91425 348.7Q610.0705 347.6375 610.0705 345.21564ZM611.1486 345.21564Q611.1486 347.325 611.6486 348.02814Q612.1486 348.73126 612.8674 348.73126Q613.60175 348.73126 614.0861 348.02814Q614.5861 347.325 614.5861 345.21564Q614.5861 343.09064 614.0861 342.40314Q613.60175 341.7 612.85175 341.7Q612.133 341.7 611.6955 342.3094Q611.1486 343.09064 611.1486 345.21564ZM617.6486 344.4344L617.6486 343.23126L618.85175 343.23126L618.85175 344.4344L617.6486 344.4344ZM617.6486 349.45L617.6486 348.2469L618.85175 348.2469L618.85175 349.45L617.6486 349.45ZM620.0705 345.21564Q620.0705 343.6844 620.383 342.7625Q620.6955 341.825 621.3049 341.325Q621.9299 340.825 622.8674 340.825Q623.5549 340.825 624.0705 341.10626Q624.60175 341.3875 624.9455 341.91876Q625.28925 342.4344 625.47675 343.1844Q625.66425 343.9344 625.66425 345.21564Q625.66425 346.73126 625.35175 347.65314Q625.0549 348.575 624.4299 349.09064Q623.8205 349.59064 622.8674 349.59064Q621.633 349.59064 620.91425 348.7Q620.0705 347.6375 620.0705 345.21564ZM621.1486 345.21564Q621.1486 347.325 621.6486 348.02814Q622.1486 348.73126 622.8674 348.73126Q623.60175 348.73126 624.0861 348.02814Q624.5861 347.325 624.5861 345.21564Q624.5861 343.09064 624.0861 342.40314Q623.60175 341.7 622.85175 341.7Q622.133 341.7 621.6955 342.3094Q621.1486 343.09064 621.1486 345.21564ZM627.0705 345.21564Q627.0705 343.6844 627.383 342.7625Q627.6955 341.825 628.3049 341.325Q628.9299 340.825 629.8674 340.825Q630.5549 340.825 631.0705 341.10626Q631.60175 341.3875 631.9455 341.91876Q632.28925 342.4344 632.47675 343.1844Q632.66425 343.9344 632.66425 345.21564Q632.66425 346.73126 632.35175 347.65314Q632.0549 348.575 631.4299 349.09064Q630.8205 349.59064 629.8674 349.59064Q628.633 349.59064 627.91425 348.7Q627.0705 347.6375 627.0705 345.21564ZM628.1486 345.21564Q628.1486 347.325 628.6486 348.02814Q629.1486 348.73126 629.8674 348.73126Q630.60175 348.73126 631.0861 348.02814Q631.5861 347.325 631.5861 345.21564Q631.5861 343.09064 631.0861 342.40314Q630.60175 341.7 629.85175 341.7Q629.133 341.7 628.6955 342.3094Q628.1486 343.09064 628.1486 345.21564Z" fill-rule="nonzero"/></svg>